PathFileType	4	(X/Y/Z)	OpenSim_Sub11_CSPreOp_Gyro.trc
DataRate	CameraRate	NumFrames	NumMarkers	Units	OrigDataRate	OrigDataStartFrame	OrigNumFrames
100	100	23	8	m	100	1851	3701
Frame#	Time	torso_imu_offset_imu	pelvis_imu_offset_imu	tibia_r_imu_offset_imu	femur_r_imu_offset_imu	tibia_l_imu_offset_imu	femur_l_imu_offset_imu	toes_r_imu_offset_imu	toes_l_imu_offset_imu
				X1	Y1	Z1	X2	Y2	Z2	X3	Y3	Z3	X4	Y4	Z4	X5	Y5	Z5	X6	Y6	Z6	X7	Y7	Z7	X8		Y8	Z8	

1851	18.50000000	-0.04495700	-0.22659400	0.03129900	-0.00014300	0.06244200	0.31695000	-1.51669900	-0.63291700	0.25960100	1.56448000	0.87108000	0.74701700	-0.11652200	-0.07456700	0.25698100	-0.11896200	-0.26038100	0.12131800	-0.58840600	0.46498200	-0.57145300	-0.06419600	-0.01505100	0.07736500
1852	18.51000000	-0.04078500	-0.22577500	0.02911900	-0.01883500	0.04497400	0.33703500	-1.42058900	-0.52678900	0.51557700	1.31989200	0.78649200	0.69824400	-0.12002800	-0.05909800	0.25341700	-0.11396000	-0.26019900	0.13685100	-0.56486400	0.73677500	-0.28643900	-0.05755000	-0.00768200	0.06873800
1853	18.52000000	-0.07524400	-0.20318400	0.00766800	-0.04648400	0.04032900	0.33921900	-1.13914700	-0.40725500	0.70381900	0.96709500	0.66431100	0.69843500	-0.05792000	-0.05572200	0.23943600	-0.12097400	-0.24556800	0.13995900	-0.50129600	0.97072800	-0.05270200	-0.05665700	-0.03427500	0.05891100
1854	18.53000000	-0.14182800	-0.17856500	-0.01801200	-0.07392400	0.04523400	0.33096100	-0.74771700	-0.32558500	0.91331000	0.48378100	0.52617300	0.66859100	-0.00793700	-0.04507800	0.21988800	-0.13331300	-0.22757600	0.15051500	-0.43060500	1.18589100	0.11986100	-0.07978000	-0.03252700	0.06559900
1855	18.54000000	-0.19610700	-0.15293200	-0.01600300	-0.09263400	0.04993000	0.31448200	-0.35462900	-0.26874200	1.17230300	0.04019400	0.40084800	0.66023700	0.00891400	-0.02399400	0.23920800	-0.09017900	-0.19978200	0.14524700	-0.39080300	1.38871400	0.24972900	-0.04222600	-0.02536600	0.05554900
1856	18.55000000	-0.21652000	-0.13102000	-0.01038900	-0.11911400	0.05792800	0.29471000	-0.01457300	-0.20034200	1.49697700	-0.38830800	0.28943400	0.62635500	0.04607200	-0.01683800	0.25780400	-0.03251400	-0.18094500	0.15999200	-0.38138600	1.56751500	0.33717700	-0.01523300	-0.01531300	0.04263300
1857	18.56000000	-0.20263800	-0.11869300	-0.00674200	-0.13563600	0.06389500	0.26670100	0.22013500	-0.11184600	1.81964600	-0.75624700	0.18370000	0.60144500	0.10508000	0.00096600	0.23552400	0.02195000	-0.17767000	0.16067800	-0.31161400	1.71921900	0.39317900	-0.05641700	-0.04286200	0.04967600
1858	18.57000000	-0.16042200	-0.10713300	0.00285200	-0.15405200	0.06879400	0.24748700	0.34776400	-0.03213300	2.10735500	-1.03136900	0.08452700	0.58823300	0.09650000	0.00791900	0.21598900	0.05311700	-0.18258900	0.17043700	-0.22889700	1.86820100	0.43699600	-0.01643100	-0.01895900	0.04515400
1859	18.58000000	-0.12695300	-0.09372700	0.01161600	-0.17112300	0.07509900	0.23365100	0.38614700	0.00954500	2.37082300	-1.24572200	-0.03190000	0.59019600	0.03816600	0.01344300	0.21903400	0.05662900	-0.18453000	0.18139000	-0.20519400	2.03903600	0.46684600	-0.07256200	-0.03796300	0.05274400
1860	18.59000000	-0.18336500	-0.07846800	0.01608800	-0.18875400	0.07670700	0.21872400	0.33643500	0.03333600	2.60506900	-1.41301600	-0.15296000	0.55741700	0.00617000	0.01270100	0.23007200	0.05075800	-0.17076500	0.19295800	-0.23112600	2.21002900	0.51056000	-0.01932000	-0.01541200	0.04626700
1861	18.60000000	-0.21502700	-0.06057700	0.02790100	-0.19697400	0.07636500	0.20685800	0.24066500	0.06277400	2.80751400	-1.50303200	-0.26699300	0.49698300	0.00132500	0.01976700	0.24309400	0.03922100	-0.14819700	0.20300500	-0.27521800	2.33488800	0.54843000	-0.07654600	-0.02710200	0.04472900
1862	18.61000000	-0.19086200	-0.05396300	0.03206400	-0.21082400	0.06592300	0.19621900	0.16917500	0.11604000	2.97988300	-1.51679500	-0.36130000	0.39992700	-0.03919600	0.01947800	0.25810000	0.02396200	-0.12503300	0.21214400	-0.26938300	2.38037100	0.56507600	-0.03624300	-0.00346900	0.03460000
1863	18.62000000	-0.13589100	-0.05018600	0.03015800	-0.20699900	0.07278300	0.18806400	0.14750800	0.18929200	3.15822400	-1.47587600	-0.42309400	0.28888100	-0.05940700	0.02677700	0.26629200	0.00166800	-0.11115900	0.22657700	-0.22045700	2.37129200	0.56355000	-0.05818700	0.00051400	0.03405600
1864	18.63000000	-0.11714600	-0.04693400	0.02344900	-0.20951900	0.07296200	0.17687200	0.14102100	0.26608600	3.34654800	-1.39802000	-0.43999000	0.17308300	-0.05650300	0.03038600	0.26404300	-0.03342200	-0.10772100	0.22996800	-0.17735800	2.31809100	0.56850200	-0.05450900	-0.02158400	0.02887900
1865	18.64000000	-0.06449200	-0.04934300	0.01138600	-0.19443500	0.07758900	0.16467700	0.08352300	0.33514400	3.52601100	-1.26034600	-0.43324000	0.03671000	-0.05525200	0.02286500	0.26153100	-0.07669300	-0.10028600	0.23139700	-0.13857600	2.20234500	0.56257900	-0.10432500	-0.01540200	0.02288800
1866	18.65000000	-0.03401000	-0.05921600	-0.00678700	-0.17665900	0.08014000	0.15091400	0.00562300	0.37809500	3.65948700	-1.09182600	-0.40321300	-0.08860200	-0.08578400	0.01737500	0.28697900	-0.10224300	-0.09986300	0.24028700	-0.04700700	2.09884300	0.56180400	-0.06330500	-0.00832600	0.01689300
1867	18.66000000	0.02163900	-0.06234700	-0.02428200	-0.16434600	0.07264000	0.13555600	-0.05678300	0.35984200	3.74710200	-0.91991200	-0.35813000	-0.23484600	-0.08839100	0.02297900	0.30666400	-0.11709100	-0.09924500	0.24442400	-0.00782500	2.10793000	0.60891600	-0.04909500	0.03469100	0.01810200
1868	18.67000000	0.02868000	-0.06803600	-0.04316200	-0.14804400	0.06278300	0.11986700	-0.11645700	0.26020900	3.77350200	-0.72381800	-0.31637600	-0.35014100	-0.04734300	0.03726500	0.30285200	-0.13716300	-0.09880800	0.24427000	0.04891300	2.19447800	0.70358300	-0.08903400	-0.03367500	0.03312400
1869	18.68000000	0.02126100	-0.06227100	-0.05600800	-0.13661000	0.04604000	0.09955800	-0.11981100	0.18158400	3.75717800	-0.51966400	-0.26814600	-0.43883700	-0.04474800	0.03685700	0.28472400	-0.14413300	-0.10405200	0.24208700	-0.05080800	2.27501100	0.81808700	-0.06209500	0.01534400	0.04253700
1870	18.69000000	0.01693900	-0.04673400	-0.06743400	-0.12582900	0.03435100	0.07915700	0.01358900	0.14020400	3.69138600	-0.30261200	-0.21153000	-0.48434800	-0.08287200	0.03917900	0.29170700	-0.13952300	-0.10561800	0.23830200	-0.13262100	2.25708800	0.92772400	-0.07600500	-0.02938800	0.05795300
1871	18.70000000	-0.02251100	-0.03049400	-0.07132000	-0.11735500	0.02795700	0.06301800	0.24653100	0.15083200	3.60747100	-0.07474800	-0.17631800	-0.52400100	-0.10317100	0.03992000	0.30735600	-0.13836400	-0.11485500	0.23807700	-0.09338900	2.10920000	1.02313800	-0.04200200	0.00812500	0.05678400
1872	18.71000000	-0.04933400	-0.01378600	-0.06462000	-0.11401600	0.02124900	0.03780000	0.52035400	0.18570800	3.50685900	0.10663900	-0.14857900	-0.55694100	-0.10723100	0.05001400	0.31563400	-0.15385900	-0.11648700	0.24017100	-0.00457700	1.84829000	1.08772600	-0.08346800	-0.02656600	0.06700900
1873	18.72000000	-0.02213400	-0.02947100	-0.05566500	-0.11160400	0.02259500	0.02349900	0.80797700	0.22653600	3.37516600	0.18191600	-0.10179400	-0.57698400	-0.13497500	0.05185400	0.32695300	-0.16996400	-0.13212700	0.24617100	0.10104200	1.58024000	1.15553000	-0.01046800	0.00528400	0.06289700
